M48
;DRILL file {KiCad 4.0.2+dfsg1-stable} date Dom 20 Nov 2016 01:18:19 BRT
;FORMAT={-:-/ absolute / inch / decimal}
FMAT,2
INCH,TZ
T1C0.028
T2C0.040
%
G90
G05
M72
T1
X4.25Y-3.15
X4.25Y-3.5
X5.35Y-3.15
X5.35Y-3.5
X5.6Y-3.2091
X5.6Y-3.4
X6.45Y-3.15
X6.45Y-3.5
X6.7Y-3.2091
X6.7Y-3.4
X7.55Y-3.15
X7.55Y-3.5
X7.8Y-3.2091
X7.8Y-3.4
X8.2Y-3.4
X8.3047Y-3.5047
T2
X4.Y-3.15
X4.Y-3.25
X4.Y-3.35
X4.Y-3.45
X4.Y-3.55
X4.2Y-3.95
X4.2Y-4.05
X4.2Y-4.15
X4.2Y-4.25
X4.3Y-3.95
X4.3Y-4.05
X4.3Y-4.15
X4.3Y-4.25
X4.4Y-3.95
X4.4Y-4.05
X4.4Y-4.15
X4.4Y-4.25
X4.5Y-3.95
X4.5Y-4.05
X4.5Y-4.15
X4.5Y-4.25
X4.6Y-3.95
X4.6Y-4.05
X4.6Y-4.15
X4.6Y-4.25
X4.7Y-3.95
X4.7Y-4.05
X4.7Y-4.15
X4.7Y-4.25
X4.8Y-3.95
X4.8Y-4.05
X4.8Y-4.15
X4.8Y-4.25
X4.9Y-3.95
X4.9Y-4.05
X4.9Y-4.15
X4.9Y-4.25
X5.3Y-3.95
X5.3Y-4.05
X5.3Y-4.15
X5.3Y-4.25
X5.4Y-3.95
X5.4Y-4.05
X5.4Y-4.15
X5.4Y-4.25
X5.5Y-3.95
X5.5Y-4.05
X5.5Y-4.15
X5.5Y-4.25
X5.6Y-3.95
X5.6Y-4.05
X5.6Y-4.15
X5.6Y-4.25
X5.7Y-3.95
X5.7Y-4.05
X5.7Y-4.15
X5.7Y-4.25
X5.8Y-3.95
X5.8Y-4.05
X5.8Y-4.15
X5.8Y-4.25
X5.9Y-3.95
X5.9Y-4.05
X5.9Y-4.15
X5.9Y-4.25
X6.Y-3.95
X6.Y-4.05
X6.Y-4.15
X6.Y-4.25
X6.4Y-3.95
X6.4Y-4.05
X6.4Y-4.15
X6.4Y-4.25
X6.5Y-3.95
X6.5Y-4.05
X6.5Y-4.15
X6.5Y-4.25
X6.6Y-3.95
X6.6Y-4.05
X6.6Y-4.15
X6.6Y-4.25
X6.7Y-3.95
X6.7Y-4.05
X6.7Y-4.15
X6.7Y-4.25
X6.8Y-3.95
X6.8Y-4.05
X6.8Y-4.15
X6.8Y-4.25
X6.9Y-3.95
X6.9Y-4.05
X6.9Y-4.15
X6.9Y-4.25
X7.Y-3.95
X7.Y-4.05
X7.Y-4.15
X7.Y-4.25
X7.1Y-3.95
X7.1Y-4.05
X7.1Y-4.15
X7.1Y-4.25
X7.5Y-3.95
X7.5Y-4.05
X7.5Y-4.15
X7.5Y-4.25
X7.6Y-3.95
X7.6Y-4.05
X7.6Y-4.15
X7.6Y-4.25
X7.7Y-3.95
X7.7Y-4.05
X7.7Y-4.15
X7.7Y-4.25
X7.8Y-3.95
X7.8Y-4.05
X7.8Y-4.15
X7.8Y-4.25
X7.9Y-3.95
X7.9Y-4.05
X7.9Y-4.15
X7.9Y-4.25
X8.Y-3.95
X8.Y-4.05
X8.Y-4.15
X8.Y-4.25
X8.1Y-3.95
X8.1Y-4.05
X8.1Y-4.15
X8.1Y-4.25
X8.2Y-3.95
X8.2Y-4.05
X8.2Y-4.15
X8.2Y-4.25
X8.4Y-3.15
X8.4Y-3.25
X8.4Y-3.35
X8.4Y-3.45
X8.4Y-3.55
X8.4Y-4.05
X8.4Y-4.15
T0
M30
