M48
;DRILL file {KiCad 4.0.2+dfsg1-stable} date Fri 15 Jul 2016 16:01:54 BRT
;FORMAT={3:3/ absolute / metric / keep zeros}
FMAT,2
METRIC,TZ
T1C0.700
T2C1.016
%
G90
G05
M71
T1
X107950Y-080010
X107950Y-088900
X135890Y-080010
X135890Y-088900
X142240Y-081510
X142240Y-086360
X163830Y-080010
X163830Y-088900
X170180Y-081510
X170180Y-086360
X191770Y-080010
X191770Y-088900
X198120Y-081510
X198120Y-086360
X208280Y-086360
X210940Y-089020
T2
X101600Y-080010
X101600Y-082550
X101600Y-085090
X101600Y-087630
X101600Y-090170
X106680Y-102870
X106680Y-105410
X106680Y-107950
X109220Y-102870
X109220Y-105410
X109220Y-107950
X111760Y-102870
X111760Y-105410
X111760Y-107950
X114300Y-102870
X114300Y-105410
X114300Y-107950
X116840Y-102870
X116840Y-105410
X116840Y-107950
X119380Y-102870
X119380Y-105410
X119380Y-107950
X121920Y-102870
X121920Y-105410
X121920Y-107950
X124460Y-102870
X124460Y-105410
X124460Y-107950
X134620Y-102870
X134620Y-105410
X134620Y-107950
X137160Y-102870
X137160Y-105410
X137160Y-107950
X139700Y-102870
X139700Y-105410
X139700Y-107950
X142240Y-102870
X142240Y-105410
X142240Y-107950
X144780Y-102870
X144780Y-105410
X144780Y-107950
X147320Y-102870
X147320Y-105410
X147320Y-107950
X149860Y-102870
X149860Y-105410
X149860Y-107950
X152400Y-102870
X152400Y-105410
X152400Y-107950
X162560Y-102870
X162560Y-105410
X162560Y-107950
X165100Y-102870
X165100Y-105410
X165100Y-107950
X167640Y-102870
X167640Y-105410
X167640Y-107950
X170180Y-102870
X170180Y-105410
X170180Y-107950
X172720Y-102870
X172720Y-105410
X172720Y-107950
X175260Y-102870
X175260Y-105410
X175260Y-107950
X177800Y-102870
X177800Y-105410
X177800Y-107950
X180340Y-102870
X180340Y-105410
X180340Y-107950
X190500Y-102870
X190500Y-105410
X190500Y-107950
X193040Y-102870
X193040Y-105410
X193040Y-107950
X195580Y-102870
X195580Y-105410
X195580Y-107950
X198120Y-102870
X198120Y-105410
X198120Y-107950
X200660Y-102870
X200660Y-105410
X200660Y-107950
X203200Y-102870
X203200Y-105410
X203200Y-107950
X205740Y-102870
X205740Y-105410
X205740Y-107950
X208280Y-102870
X208280Y-105410
X208280Y-107950
X213360Y-080010
X213360Y-082550
X213360Y-085090
X213360Y-087630
X213360Y-090170
X213360Y-102870
X213360Y-105410
T0
M30
