G04 #@! TF.FileFunction,Copper,L2,Bot,Signal*
%FSLAX46Y46*%
G04 Gerber Fmt 4.6, Leading zero omitted, Abs format (unit mm)*
G04 Created by KiCad (PCBNEW 4.0.2+dfsg1-stable) date Fri 15 Jul 2016 16:01:52 BRT*
%MOMM*%
G01*
G04 APERTURE LIST*
%ADD10C,0.100000*%
%ADD11R,1.727200X1.727200*%
%ADD12O,1.727200X1.727200*%
%ADD13R,1.727200X2.032000*%
%ADD14O,1.727200X2.032000*%
%ADD15R,2.032000X1.727200*%
%ADD16O,2.032000X1.727200*%
%ADD17R,2.032000X2.032000*%
%ADD18O,2.032000X2.032000*%
%ADD19C,1.300000*%
%ADD20C,1.000000*%
%ADD21C,0.350000*%
G04 APERTURE END LIST*
D10*
D11*
X106680000Y-102870000D03*
D12*
X106680000Y-105410000D03*
X109220000Y-102870000D03*
X109220000Y-105410000D03*
X111760000Y-102870000D03*
X111760000Y-105410000D03*
X114300000Y-102870000D03*
X114300000Y-105410000D03*
X116840000Y-102870000D03*
X116840000Y-105410000D03*
X119380000Y-102870000D03*
X119380000Y-105410000D03*
X121920000Y-102870000D03*
X121920000Y-105410000D03*
X124460000Y-102870000D03*
X124460000Y-105410000D03*
D13*
X106680000Y-107950000D03*
D14*
X109220000Y-107950000D03*
X111760000Y-107950000D03*
X114300000Y-107950000D03*
X116840000Y-107950000D03*
X119380000Y-107950000D03*
X121920000Y-107950000D03*
X124460000Y-107950000D03*
D11*
X134620000Y-102870000D03*
D12*
X134620000Y-105410000D03*
X137160000Y-102870000D03*
X137160000Y-105410000D03*
X139700000Y-102870000D03*
X139700000Y-105410000D03*
X142240000Y-102870000D03*
X142240000Y-105410000D03*
X144780000Y-102870000D03*
X144780000Y-105410000D03*
X147320000Y-102870000D03*
X147320000Y-105410000D03*
X149860000Y-102870000D03*
X149860000Y-105410000D03*
X152400000Y-102870000D03*
X152400000Y-105410000D03*
D13*
X134620000Y-107950000D03*
D14*
X137160000Y-107950000D03*
X139700000Y-107950000D03*
X142240000Y-107950000D03*
X144780000Y-107950000D03*
X147320000Y-107950000D03*
X149860000Y-107950000D03*
X152400000Y-107950000D03*
D15*
X101600000Y-80010000D03*
D16*
X101600000Y-82550000D03*
X101600000Y-85090000D03*
X101600000Y-87630000D03*
X101600000Y-90170000D03*
D11*
X162560000Y-102870000D03*
D12*
X162560000Y-105410000D03*
X165100000Y-102870000D03*
X165100000Y-105410000D03*
X167640000Y-102870000D03*
X167640000Y-105410000D03*
X170180000Y-102870000D03*
X170180000Y-105410000D03*
X172720000Y-102870000D03*
X172720000Y-105410000D03*
X175260000Y-102870000D03*
X175260000Y-105410000D03*
X177800000Y-102870000D03*
X177800000Y-105410000D03*
X180340000Y-102870000D03*
X180340000Y-105410000D03*
D15*
X213360000Y-80010000D03*
D16*
X213360000Y-82550000D03*
X213360000Y-85090000D03*
X213360000Y-87630000D03*
X213360000Y-90170000D03*
D13*
X162560000Y-107950000D03*
D14*
X165100000Y-107950000D03*
X167640000Y-107950000D03*
X170180000Y-107950000D03*
X172720000Y-107950000D03*
X175260000Y-107950000D03*
X177800000Y-107950000D03*
X180340000Y-107950000D03*
D11*
X190500000Y-102870000D03*
D12*
X190500000Y-105410000D03*
X193040000Y-102870000D03*
X193040000Y-105410000D03*
X195580000Y-102870000D03*
X195580000Y-105410000D03*
X198120000Y-102870000D03*
X198120000Y-105410000D03*
X200660000Y-102870000D03*
X200660000Y-105410000D03*
X203200000Y-102870000D03*
X203200000Y-105410000D03*
X205740000Y-102870000D03*
X205740000Y-105410000D03*
X208280000Y-102870000D03*
X208280000Y-105410000D03*
D13*
X190500000Y-107950000D03*
D14*
X193040000Y-107950000D03*
X195580000Y-107950000D03*
X198120000Y-107950000D03*
X200660000Y-107950000D03*
X203200000Y-107950000D03*
X205740000Y-107950000D03*
X208280000Y-107950000D03*
D17*
X213360000Y-105410000D03*
D18*
X213360000Y-102870000D03*
D19*
X191770000Y-80010000D03*
X191770000Y-88900000D03*
X163830000Y-80010000D03*
X163830000Y-88900000D03*
X135890000Y-80010000D03*
X135890000Y-88900000D03*
X107950000Y-80010000D03*
X107950000Y-88900000D03*
X208280000Y-86360000D03*
X210939658Y-89019658D03*
X142240000Y-81510010D03*
X142240000Y-86360000D03*
X170180000Y-81510010D03*
X170180000Y-86360000D03*
X198120000Y-81510010D03*
X198120000Y-86360000D03*
D20*
X191770000Y-88900000D02*
X191770000Y-80010000D01*
X163830000Y-88900000D02*
X163830000Y-80010000D01*
X135890000Y-88900000D02*
X135890000Y-80010000D01*
X107950000Y-88900000D02*
X107950000Y-80010000D01*
D21*
X210939658Y-89019658D02*
X208280000Y-86360000D01*
X142240000Y-86360000D02*
X142240000Y-81510010D01*
X170180000Y-86360000D02*
X170180000Y-81510010D01*
X198120000Y-86360000D02*
X198120000Y-81510010D01*
M02*
